<?xml version="1.0" encoding="UTF-8" standalone="no"?>
<svg viewBox="0 0 130 140" version="1.1" xmlns="http://www.w3.org/2000/svg" xmlns:xlink="http://www.w3.org/1999/xlink">
    <!-- Generator: Sketch 41.2 (35397) - http://www.bohemiancoding.com/sketch -->
    <title>icon-</title>
    <desc>Created with Sketch.</desc>
    <defs></defs>
    <g id="Icons" stroke="none" stroke-width="1" fill="none" fill-rule="evenodd">
        <g id="icon-" fill="#000000">
            <g id="spiral-stairs-copy" transform="translate(9.000000, 13.000000)">
                <path d="M59,111.944698 C67.4664716,111.569376 75.4398382,109.297183 82.5054535,105.542767 L63.6117876,72.8179775 C62.1508871,73.3602891 60.6051809,73.728071 59,73.8959922 L59,111.944698 Z M86.8107137,102.999696 C93.2542059,98.7909445 98.7692394,93.2790898 102.981703,86.8382434 L70.6779494,68.1876627 C69.868371,69.0271485 68.9822275,69.7922974 68.0307623,70.4718662 L86.8107137,102.999696 Z M105.558177,82.4764322 C109.227836,75.5604208 111.477829,67.7758465 111.919705,59.5111607 L75.4612306,59.5111607 C75.0683705,61.124478 74.4695405,62.6571484 73.694172,64.0797405 L105.558177,82.4764322 Z M111.964238,54.4888267 C111.687197,46.7109381 109.809676,39.3406671 106.651024,32.697362 L75.1720331,49.4350385 C75.6628368,51.0397029 75.9469265,52.7346514 75.9932573,54.4888392 L111.964238,54.4888393 Z M104.302149,28.2834309 C100.074673,21.1370192 94.2902798,15.0206502 87.4159218,10.4012757 L69.3131608,40.5293294 C70.779391,41.7781642 72.0534502,43.2459041 73.0847864,44.881997 L104.302149,28.2834309 Z M83.1444556,7.80216915 C75.9220034,3.84208672 67.7227036,1.44198297 59,1.05530191 L59,36.1040078 C61.1663223,36.3306311 63.2243191,36.9212747 65.1117249,37.8136729 L83.1444556,7.80216915 Z M54,1.05530191 C45.8863969,1.4149813 38.2256517,3.51670924 31.3826964,6.995554 L49.1147702,37.7084067 C50.6450608,37.0094419 52.2842992,36.5076457 54,36.2355035 L54,1.05530191 Z M27.0322961,9.46043959 C19.9435565,13.9105147 13.9320716,19.9185508 9.47791944,27.0044699 L40.7904075,45.0827433 C41.8866671,43.2947456 43.2704622,41.7020866 44.877434,40.3691252 L27.0322961,9.46043959 Z M6.9806597,31.4120154 C3.4410029,38.3848491 1.33079947,46.2056905 1.03576215,54.4888267 L38.0067427,54.4888393 C38.0500928,52.847508 38.3015931,51.2580389 38.7358137,49.745862 L6.9806597,31.4120154 Z" id="spiral"></path>
                <rect id="landing" x="1" y="59" width="37" height="37"></rect>
            </g>
        </g>
    </g>
</svg>
